<?xml version="1.0" encoding="utf-8"?>
<!-- Generator: Adobe Illustrator 27.0.0, SVG Export Plug-In . SVG Version: 6.00 Build 0)  -->
<svg version="1.1" id="Camada_1" xmlns="http://www.w3.org/2000/svg" xmlns:xlink="http://www.w3.org/1999/xlink" x="0px" y="0px"
	 viewBox="0 0 500 500" style="enable-background:new 0 0 500 500;" width="100" height="100" xml:space="preserve">
<style type="text/css">
	.st0{fill:#FFA124;}
	.st1{fill:url(#SVGID_1_);}
	.st2{fill:url(#SVGID_00000033344219210749105460000003451001049583256227_);}
	.st3{fill:url(#SVGID_00000085937507993300707940000012276371638728308864_);}
	.st4{fill:#875BC5;}
	.st5{fill:#6F49A1;}
	.st6{fill:none;}
	.st7{fill:#FF832A;}
	.st8{fill:#FFFFFF;}
	.st9{fill:#FFBE71;}
	.st10{fill:#2C3054;}
	.st11{fill:#DBECF2;}
	.st12{opacity:0.75;}
	.st13{fill:#1A1E37;}
	.st14{fill:#C0F2EC;}
	.st15{fill:#1B1F33;stroke:#FFFFFF;stroke-width:0.25;stroke-miterlimit:10;}
	.st16{fill:#6C4D9E;}
	.st17{fill:#9368D0;}
	.st18{fill:#BC7CEA;}
</style>
<g>
	<g>
		<path class="st0" d="M236.8,385.2L236.8,385.2c-8,0-14.4-6.4-14.4-14.4v-24.3h28.8v24.3C251.2,378.8,244.8,385.2,236.8,385.2z"/>
		<path class="st0" d="M265.6,385.2L265.6,385.2c-8,0-14.4-6.4-14.4-14.4v-24.3H280v24.3C280,378.8,273.6,385.2,265.6,385.2z"/>
		<linearGradient id="SVGID_1_" gradientUnits="userSpaceOnUse" x1="173.9362" y1="145.0662" x2="346.6029" y2="315.0662">
			<stop  offset="0" style="stop-color:#C895E8"/>
			<stop  offset="1" style="stop-color:#9368D0"/>
		</linearGradient>
		<path class="st1" d="M250.5,371.2c-25.7-0.1-49.7-7.9-69.6-21.1c-7.9-5.2-15.1-11.4-21.6-18.2c-21.5-22.7-34.8-53.4-34.8-87.1
			c0-13.4,2.1-26.3,5.9-38.5c1.6-5,3.7-9.9,6-14.6c4.6-9.6,7.5-21.6,7.5-32c0-12.8-7.7-24-1.3-33.7c5.5-8.4,17.6-9.6,27.4-7.2
			c17.5,4.2,28.2,16.3,44.4,24.2c7.2,3.5,14.8,5.8,22.7,7.3c8.9,1.7,18,1.7,26.8,0c7.8-1.5,15.4-3.8,22.7-7.3
			c16.2-7.9,26.9-20,44.4-24.2c9.8-2.4,21.8-1.2,27.4,7.2c6.4,9.7-1.3,19.2-1.3,33.7c0,10.4,2.9,22.4,7.5,32c2.3,4.8,4.4,9.6,6,14.6
			c3.8,12.1,5.9,25.1,5.9,38.5c0,33.7-13.2,64.4-34.8,87.1c-6.5,6.8-13.7,12.9-21.6,18.2C300.2,363.3,276.2,371.1,250.5,371.2
			L250.5,371.2z"/>
	</g>
	
		<linearGradient id="SVGID_00000102514005232989014050000015591454119269932703_" gradientUnits="userSpaceOnUse" x1="210.8711" y1="106.7022" x2="383.5378" y2="276.7021">
		<stop  offset="0" style="stop-color:#C895E8"/>
		<stop  offset="1" style="stop-color:#9368D0"/>
	</linearGradient>
	<path style="fill:url(#SVGID_00000102514005232989014050000015591454119269932703_);" d="M253.9,145c-5.9,9.7-15.4,14.8-21.3,11.2
		c-5.9-3.6-5.9-14.3,0-24.1c5.9-9.7,15.4-14.8,21.3-11.2C259.8,124.5,259.8,135.2,253.9,145z"/>
	
		<linearGradient id="SVGID_00000138549451518739628250000016246978747957321142_" gradientUnits="userSpaceOnUse" x1="213.519" y1="104.0127" x2="386.1857" y2="274.0127">
		<stop  offset="0" style="stop-color:#C895E8"/>
		<stop  offset="1" style="stop-color:#9368D0"/>
	</linearGradient>
	<path style="fill:url(#SVGID_00000138549451518739628250000016246978747957321142_);" d="M260.2,155.1c-7.4,2.8-14.9,1.4-16.5-3.1
		c-1.7-4.5,3-10.4,10.4-13.2c7.4-2.8,14.9-1.4,16.5,3.1C272.3,146.4,267.7,152.3,260.2,155.1z"/>
	<g>
		<path class="st4" d="M375.6,246c0,69.5-56.3,127.5-125.8,127.5h-0.4c0,0,0,0,0,0c-69.5,0-125.8-57.9-125.8-127.5
			c0-2.4,0.1-4.6,0.2-7c3.7,66.2,58.5,119.5,125.6,119.5c0,0,0,0,0,0h0.4c67.1,0,121.8-53.3,125.6-119.5
			C375.6,241.4,375.6,243.5,375.6,246z"/>
	</g>
	<g>
		<path class="st5" d="M370.9,206c-1.8-5.6-4.2-10.9-6.1-14.8c-4.6-9.6-7.4-21.4-7.4-31.4c0-5.5,1.1-10.3,2.2-14.6
			c1.7-7.2,3.2-13.5-1.1-19.9c-6.2-9.4-19.4-10.1-28.9-7.9c-10.9,2.6-19.1,8.1-27.7,14c-5.3,3.6-10.7,7.3-16.9,10.3
			c-4.1,2-8.5,3.6-13.1,5c0.7-1.8,0.7-3.7,0.1-5.3c-1.5-4.1-6.7-6.1-12.9-5.3c1.7-7.4,0.1-13.7-4.4-16.4c-3.3-2-7.6-1.8-12.1,0.6
			c-4.3,2.2-8.2,6.2-11.2,11.1c-3,5-4.7,10.4-4.6,15.2c-4.4-1.3-8.7-2.9-12.6-4.8c-6.2-3-11.7-6.7-17-10.3
			c-8.6-5.9-16.8-11.4-27.7-14c-9.5-2.3-22.7-1.6-28.9,7.9c-4.3,6.6-2.7,13.7-0.9,21.2c1,4.3,2,8.7,2,13.3c0,10-2.8,21.7-7.4,31.4
			c-1.9,3.9-4.3,9.2-6.1,14.8c-4,12.6-6,25.6-6,38.9c0,32.9,12.5,64.2,35.2,88.1c6.2,6.5,13.1,12.4,20.6,17.5c0,0,0,0,0,0
			c0.4,0.3,0.8,0.6,1.2,0.8c12.8,8.5,26.8,14.4,41.6,17.9c9.3,2.2,19,3.2,28.8,3.2c0,0,0,0,0,0c9.8,0,19.4-1,28.8-3.2
			c14.8-3.4,28.8-9.4,41.6-17.9c4-2.6,7.8-5.5,11.4-8.6c0.3-0.2,0.6-0.4,0.8-0.7c3.3-2.8,6.5-5.9,9.6-9.1
			c22.7-23.9,35.2-55.2,35.2-88.1C376.9,231.6,374.9,218.6,370.9,206z M278.4,366.2c-9.4,2.2-19,3.2-28.8,3.2c0,0,0,0,0,0
			c-9.8,0-19.4-1-28.8-3.2c-14.2-3.4-27.7-9.2-40-17.4c-7.7-5.2-14.8-11.2-21.2-17.9c-20.8-21.9-33.1-50-34.1-80v-0.1
			c0-2-0.2-4-0.2-6c0-12.9,1.9-25.8,5.8-38c1.7-5.4,4-10.6,5.9-14.4c4.8-10,7.7-22.2,7.7-32.6c0-4.9-1.1-9.5-2.1-13.9
			c-1.7-7.2-3.1-13.4,0.5-19c3.7-5.7,10.5-7.6,17.2-7.6c3,0,5.9,0.4,8.5,1c10.4,2.5,18.4,7.9,26.8,13.6c5.4,3.6,10.9,7.4,17.3,10.5
			c4.6,2.2,9.7,4.1,15,5.6l0.7,0.2l1.4,0.4l-0.2-1.6l-0.1-0.6c-0.5-4.6,1-10.3,4.1-15.5c2.7-4.5,6.3-8.1,10.1-10.1
			c3.6-1.9,6.8-2.1,9.2-0.7c3.7,2.2,4.7,8.4,2.5,15.4l-0.3,0.9l-0.5,1.5l1.6-0.4l0.8-0.2c5.7-1.3,10.7,0,11.9,3.1
			c0.6,1.7,0.1,3.7-1.5,5.7l-1.1,1.4l-1.5,1.9l1.9-0.5l2.1-0.6c6.1-1.5,11.8-3.6,17-6.1c6.4-3.1,11.9-6.9,17.3-10.5
			c8.4-5.7,16.3-11.1,26.8-13.6c8.5-2.1,20.4-1.6,25.8,6.6c3.6,5.4,2.3,10.8,0.7,17.7c-1,4.4-2.2,9.5-2.2,15.2
			c0,10.4,2.9,22.6,7.7,32.6c1.9,3.9,4.2,9,5.9,14.4c3.9,12.3,5.7,25.1,5.7,38c0,3,0.5,6-0.5,8.9v0.1c-2,28.8-13.8,55.9-33.9,77.1
			c-6.4,6.8-13.5,12.7-21.3,17.9C306,357.1,292.5,362.8,278.4,366.2z"/>
	</g>
	<path class="st6" d="M262.7,258l1.9-13.4l-28.7,0.9l-0.4,11.9C235.5,257.3,262,255.1,262.7,258z"/>
	<g>
		<g>
			<path class="st0" d="M266.6,279.8L252,294.4c-0.9,0.9-2.3,0.9-3.2,0l-14.6-14.6c-3.9-3.9-3.9-10.1,0-14l0.1-0.1
				c8.9-8.9,23.3-8.9,32.2,0l0.1,0.1C270.4,269.7,270.4,276,266.6,279.8z"/>
		</g>
		<g>
			<path class="st7" d="M266.7,279.8l-14.6,14.6c-0.9,0.9-2.3,0.9-3.2,0l-14.6-14.6c-2.5-2.5-3.4-6.1-2.6-9.3
				c0.4,1.7,1.3,3.3,2.6,4.7l14.6,14.6c0.9,0.9,2.3,0.9,3.2,0l14.6-14.6c1.3-1.3,2.2-3,2.6-4.7C270.1,273.7,269.2,277.3,266.7,279.8
				z"/>
		</g>
		<g>
			<path class="st8" d="M267,265.5L267,265.5c-9.2-9.2-24-9.2-33.1-0.1l0,0c-2,2-3,4.6-3,7.4c0,2.8,1.1,5.4,3,7.4l14.6,14.6
				c0.5,0.5,1.3,0.8,2,0.8c0.7,0,1.4-0.3,2-0.8l14.6-14.6c2-2,3-4.6,3-7.4C270,270.1,268.9,267.4,267,265.5z M249.2,294l-14.6-14.6
				c-1.8-1.8-2.7-4.1-2.7-6.6c0-0.5,0-1,0.1-1.5c0.3-1.9,1.2-3.7,2.6-5.1l0,0c4.3-4.3,10-6.5,15.7-6.5c5.7,0,11.4,2.2,15.7,6.5
				l0.1,0.1c1.6,1.5,2.5,3.5,2.7,5.7c0,0.3,0,0.6,0,0.9c0,2.5-1,4.8-2.7,6.6L251.6,294C250.9,294.7,249.8,294.7,249.2,294z"/>
		</g>
		<g>
			<ellipse class="st9" cx="250.4" cy="268.6" rx="11.6" ry="5.7"/>
		</g>
	</g>
	<g id="Olhos_00000018218114006874512450000007938060747323603589_">
		<g>
			<circle class="st8" cx="298.6" cy="232" r="34"/>
		</g>
		<g>
			<path class="st10" d="M322.1,232c0,13.5-11.4,24.4-25.2,23.5c-10.7-0.7-20.7-10.4-21.7-21c-0.9-8.8,3.1-16.8,9.6-21.5
				c1.4-1,3.4-0.6,4.3,0.9l0,0c4.2,7.3,14.8,7.3,19,0l0,0c0.8-1.5,2.8-1.9,4.2-0.9C318.3,217.1,322.1,224.1,322.1,232z"/>
		</g>
		<g>
			<path class="st11" d="M332.4,232c0,18.8-15.2,34-34,34c-10.1,0-19.2-4.4-25.4-11.4c6,5.3,13.9,8.5,22.5,8.5c18.8,0,34-15.2,34-34
				c0-8.6-3.2-16.5-8.5-22.5C327.9,212.8,332.4,221.9,332.4,232z"/>
		</g>
		<g class="st12">
			<path class="st13" d="M321.9,232c0,13.5-11.4,24.4-25.2,23.5c-6.1-0.4-12-3.8-16.1-8.6c3.8,3.2,8.4,5.4,13.2,5.7
				c13.7,0.9,25.2-9.9,25.2-23.5c0-5.8-2.1-11-5.5-15.1C318.6,218.3,321.9,224.8,321.9,232z"/>
		</g>
		<g>
			<circle class="st8" cx="200.5" cy="232" r="34"/>
		</g>
		<g>
			<path class="st10" d="M224,232c0,13.5-11.4,24.4-25.2,23.5c-10.7-0.7-20.7-10.4-21.7-21c-0.9-8.8,3.1-16.8,9.6-21.5
				c1.4-1,3.4-0.6,4.3,0.9l0,0c4.2,7.3,14.8,7.3,19,0l0,0c0.8-1.5,2.8-1.9,4.2-0.9C220.1,217.1,224,224.1,224,232z"/>
		</g>
		<g>
			<path class="st11" d="M234.2,232c0,18.8-15.2,34-34,34c-10.1,0-19.2-4.4-25.4-11.4c6,5.3,13.9,8.5,22.5,8.5c18.8,0,34-15.2,34-34
				c0-8.6-3.2-16.5-8.5-22.5C229.8,212.8,234.2,221.9,234.2,232z"/>
		</g>
		<g class="st12">
			<path class="st13" d="M223.7,232c0,13.5-11.4,24.4-25.2,23.5c-6.1-0.4-12-3.8-16.1-8.6c3.8,3.2,8.4,5.4,13.2,5.7
				c13.7,0.9,25.2-9.9,25.2-23.5c0-5.8-2.1-11-5.5-15.1C220.5,218.3,223.7,224.8,223.7,232z"/>
		</g>
	</g>
	<path class="st14" d="M268,264.5"/>
	<path class="st15" d="M299.2,267.2"/>
	<path class="st15" d="M196.7,266.2"/>
	<path class="st10" d="M146,274.4"/>
	<path class="st10" d="M353.4,274.8"/>
	<g>
		<g>
			
				<ellipse transform="matrix(0.3662 -0.9305 0.9305 0.3662 9.132 559.0873)" class="st16" cx="415" cy="272.8" rx="7.7" ry="15.1"/>
		</g>
		<g>
			
				<ellipse transform="matrix(0.3662 -0.9305 0.9305 0.3662 0.8877 546.5263)" class="st16" cx="401.7" cy="272.6" rx="7.7" ry="15.1"/>
		</g>
		<g>
			
				<ellipse transform="matrix(0.2469 -0.9691 0.9691 0.2469 64.2509 611.5468)" class="st17" cx="425.6" cy="264.4" rx="11.3" ry="22"/>
		</g>
		<g>
			
				<ellipse transform="matrix(0.2469 -0.9691 0.9691 0.2469 84.7545 619.0096)" class="st17" cx="440.6" cy="255" rx="11.3" ry="22"/>
		</g>
		<g>
			
				<ellipse transform="matrix(0.9808 -0.1951 0.1951 0.9808 -42.2585 85.9592)" class="st18" cx="415.3" cy="257.5" rx="34.1" ry="20.6"/>
		</g>
	</g>
	<g>
		<g>
			
				<ellipse transform="matrix(0.9575 -0.2884 0.2884 0.9575 -75.2072 35.4776)" class="st16" cx="82.8" cy="273" rx="15.1" ry="7.7"/>
		</g>
		<g>
			
				<ellipse transform="matrix(0.9575 -0.2884 0.2884 0.9575 -74.8923 39.3555)" class="st16" cx="96.1" cy="273.8" rx="15.1" ry="7.7"/>
		</g>
		<g>
			
				<ellipse transform="matrix(0.9861 -0.1663 0.1663 0.9861 -42.8341 15.8034)" class="st17" cx="73" cy="263.7" rx="22" ry="11.3"/>
		</g>
		<g>
			
				<ellipse transform="matrix(0.9861 -0.1663 0.1663 0.9861 -41.2586 13.2898)" class="st17" cx="58.7" cy="253" rx="22" ry="11.3"/>
		</g>
		<g>
			
				<ellipse transform="matrix(0.2751 -0.9614 0.9614 0.2751 -186.9801 267.3258)" class="st18" cx="83.8" cy="257.7" rx="20.6" ry="34.1"/>
		</g>
	</g>
</g>
</svg>
